<svg width="267" height="37" viewBox="0 0 267 37" fill="none" xmlns="http://www.w3.org/2000/svg">
<path d="M0 0H267V36.6695H0V0Z" fill="black"/>
<path d="M11.459 24.7029H14.2153V19.3176H19.8107V24.7029H22.5606V11.6661H19.8107V17.0451H14.2153V11.6661H11.459V24.7029Z" fill="white"/>
<path d="M28.8162 22.2042L29.7838 19.2314H34.488L35.4556 22.2042H38.4092L33.9151 9.16739H30.3631L25.8626 22.2042H28.8162ZM30.484 17.0799L32.0882 12.1465H32.19L33.7942 17.0799H30.484Z" fill="white"/>
<path d="M52.7174 16.2303C52.3546 13.2193 50.0757 11.4879 47.0584 11.4879C43.6146 11.4879 40.9856 13.9196 40.9856 18.1845C40.9856 22.4368 43.5701 24.8812 47.0584 24.8812C50.4004 24.8812 52.4183 22.6596 52.7174 20.2597L49.9293 20.247C49.6683 21.6411 48.5734 22.4431 47.103 22.4431C45.1233 22.4431 43.7801 20.9727 43.7801 18.1845C43.7801 15.4728 45.1042 13.9259 47.1221 13.9259C48.6307 13.9259 49.7192 14.798 49.9293 16.2303H52.7174Z" fill="white"/>
<path d="M56.4865 24.7029H59.2428V20.9981L60.5987 19.3431L64.1698 24.7029H67.4672L62.5721 17.5034L67.4099 11.6661H64.1062L59.4147 17.4143H59.2428V11.6661H56.4865V24.7029Z" fill="white"/>
<path d="M72.885 24.7029L73.8526 21.7302H78.5568L79.5244 24.7029H82.478L77.9839 11.6661H74.4319L69.9314 24.7029H72.885ZM74.5528 19.5786L76.1569 14.6452H76.2588L77.8629 19.5786H74.5528Z" fill="white"/>
<path d="M83.7327 13.9386H87.7239V24.7029H90.4484V13.9386H94.4397V11.6661H83.7327V13.9386Z" fill="white"/>
<path d="M97.9955 24.7029H100.752V19.3176H106.347V24.7029H109.097V11.6661H106.347V17.0451H100.752V11.6661H97.9955V24.7029Z" fill="white"/>
<path d="M125.142 18.1845C125.142 13.9196 122.494 11.4879 119.038 11.4879C115.562 11.4879 112.933 13.9196 112.933 18.1845C112.933 22.4304 115.562 24.8812 119.038 24.8812C122.494 24.8812 125.142 22.4495 125.142 18.1845ZM122.348 18.1845C122.348 20.9472 121.036 22.4431 119.038 22.4431C117.033 22.4431 115.728 20.9472 115.728 18.1845C115.728 15.4218 117.033 13.9259 119.038 13.9259C121.036 13.9259 122.348 15.4218 122.348 18.1845Z" fill="white"/>
<path d="M139.881 11.6661H137.137V19.865H137.023L131.396 11.6661H128.977V24.7029H131.733V16.4976H131.828L137.5 24.7029H139.881V11.6661Z" fill="white"/>
<path d="M149.892 24.7029H152.648V19.3176H157.951V17.0451H152.648V13.9386H158.524V11.6661H149.892V24.7029Z" fill="white"/>
<path d="M174.151 18.1845C174.151 13.9196 171.503 11.4879 168.046 11.4879C164.57 11.4879 161.941 13.9196 161.941 18.1845C161.941 22.4304 164.57 24.8812 168.046 24.8812C171.503 24.8812 174.151 22.4495 174.151 18.1845ZM171.356 18.1845C171.356 20.9472 170.045 22.4431 168.046 22.4431C166.041 22.4431 164.736 20.9472 164.736 18.1845C164.736 15.4218 166.041 13.9259 168.046 13.9259C170.045 13.9259 171.356 15.4218 171.356 18.1845Z" fill="white"/>
<path d="M177.985 24.7029H180.741V20.0815H182.753L185.223 24.7029H188.265L185.496 19.6359C186.98 18.9993 187.801 17.7071 187.801 15.9247C187.801 13.3339 186.088 11.6661 183.128 11.6661H177.985V24.7029ZM180.741 17.8662V13.9196H182.6C184.191 13.9196 184.962 14.6261 184.962 15.9247C184.962 17.2169 184.191 17.8662 182.613 17.8662H180.741Z" fill="white"/>
<path d="M206.127 15.8802H208.928C208.571 13.3021 206.299 11.4879 203.352 11.4879C199.908 11.4879 197.253 13.9705 197.253 18.1973C197.253 22.3222 199.736 24.8812 203.409 24.8812C206.7 24.8812 209.049 22.7996 209.049 19.3685V17.7262H203.594V19.8014H206.394C206.356 21.4183 205.255 22.4431 203.422 22.4431C201.353 22.4431 200.048 20.8963 200.048 18.1718C200.048 15.46 201.404 13.9259 203.396 13.9259C204.816 13.9259 205.777 14.658 206.127 15.8802Z" fill="white"/>
<path d="M224.892 18.1845C224.892 13.9196 222.244 11.4879 218.787 11.4879C215.312 11.4879 212.683 13.9196 212.683 18.1845C212.683 22.4304 215.312 24.8812 218.787 24.8812C222.244 24.8812 224.892 22.4495 224.892 18.1845ZM222.097 18.1845C222.097 20.9472 220.786 22.4431 218.787 22.4431C216.782 22.4431 215.477 20.9472 215.477 18.1845C215.477 15.4218 216.782 13.9259 218.787 13.9259C220.786 13.9259 222.097 15.4218 222.097 18.1845Z" fill="white"/>
<path d="M240.706 18.1845C240.706 13.9196 238.058 11.4879 234.602 11.4879C231.126 11.4879 228.497 13.9196 228.497 18.1845C228.497 22.4304 231.126 24.8812 234.602 24.8812C238.058 24.8812 240.706 22.4495 240.706 18.1845ZM237.912 18.1845C237.912 20.9472 236.601 22.4431 234.602 22.4431C232.597 22.4431 231.292 20.9472 231.292 18.1845C231.292 15.4218 232.597 13.9259 234.602 13.9259C236.601 13.9259 237.912 15.4218 237.912 18.1845Z" fill="white"/>
<path d="M249.162 24.7029C253.134 24.7029 255.541 22.2458 255.541 18.1718C255.541 14.1105 253.134 11.6661 249.2 11.6661H244.541V24.7029H249.162ZM247.297 22.3413V14.0278H249.054C251.498 14.0278 252.791 15.2754 252.791 18.1718C252.791 21.0809 251.498 22.3413 249.048 22.3413H247.297Z" fill="white"/>
<path d="M11.459 24.6743H14.2153V19.2889H19.8107V24.6743H22.5606V11.6375H19.8107V17.0164H14.2153V11.6375H11.459V24.6743Z" fill="white"/>
<path d="M52.7174 16.2016C52.3546 13.1907 50.0757 11.4592 47.0584 11.4592C43.6146 11.4592 40.9856 13.8909 40.9856 18.1559C40.9856 22.4081 43.5701 24.8525 47.0584 24.8525C50.4004 24.8525 52.4183 22.6309 52.7174 20.2311L49.9293 20.2183C49.6683 21.6124 48.5734 22.4145 47.103 22.4145C45.1233 22.4145 43.7801 20.944 43.7801 18.1559C43.7801 15.4441 45.1042 13.8973 47.1221 13.8973C48.6307 13.8973 49.7192 14.7694 49.9293 16.2016H52.7174Z" fill="white"/>
<path d="M56.4865 24.6743H59.2428V20.9695L60.5987 19.3144L64.1698 24.6743H67.4672L62.5721 17.4747L67.4099 11.6375H64.1062L59.4147 17.3856H59.2428V11.6375H56.4865V24.6743Z" fill="white"/>
<path d="M72.885 24.6743L73.8526 21.7015H78.5568L79.5244 24.6743H82.478L77.9839 11.6375H74.4319L69.9314 24.6743H72.885ZM74.5528 19.5499L76.1569 14.6166H76.2588L77.8629 19.5499H74.5528Z" fill="white"/>
<path d="M83.7327 13.91H87.7239V24.6743H90.4484V13.91H94.4397V11.6375H83.7327V13.91Z" fill="white"/>
<path d="M97.9955 24.6743H100.752V19.2889H106.347V24.6743H109.097V11.6375H106.347V17.0164H100.752V11.6375H97.9955V24.6743Z" fill="white"/>
<path d="M125.142 18.1559C125.142 13.8909 122.494 11.4592 119.038 11.4592C115.562 11.4592 112.933 13.8909 112.933 18.1559C112.933 22.4017 115.562 24.8525 119.038 24.8525C122.494 24.8525 125.142 22.4208 125.142 18.1559ZM122.348 18.1559C122.348 20.9185 121.036 22.4145 119.038 22.4145C117.033 22.4145 115.728 20.9185 115.728 18.1559C115.728 15.3932 117.033 13.8973 119.038 13.8973C121.036 13.8973 122.348 15.3932 122.348 18.1559Z" fill="white"/>
<path d="M139.881 11.6375H137.137V19.8364H137.023L131.396 11.6375H128.977V24.6743H131.733V16.469H131.828L137.5 24.6743H139.881V11.6375Z" fill="white"/>
<path d="M149.892 24.6743H152.648V19.2889H157.951V17.0164H152.648V13.91H158.524V11.6375H149.892V24.6743Z" fill="white"/>
<path d="M174.151 18.1559C174.151 13.8909 171.503 11.4592 168.046 11.4592C164.57 11.4592 161.941 13.8909 161.941 18.1559C161.941 22.4017 164.57 24.8525 168.046 24.8525C171.503 24.8525 174.151 22.4208 174.151 18.1559ZM171.356 18.1559C171.356 20.9185 170.045 22.4145 168.046 22.4145C166.041 22.4145 164.736 20.9185 164.736 18.1559C164.736 15.3932 166.041 13.8973 168.046 13.8973C170.045 13.8973 171.356 15.3932 171.356 18.1559Z" fill="white"/>
<path d="M177.985 24.6743H180.741V20.0528H182.753L185.223 24.6743H188.265L185.496 19.6072C186.98 18.9707 187.801 17.6784 187.801 15.8961C187.801 13.3053 186.088 11.6375 183.128 11.6375H177.985V24.6743ZM180.741 17.8376V13.8909H182.6C184.191 13.8909 184.962 14.5975 184.962 15.8961C184.962 17.1883 184.191 17.8376 182.613 17.8376H180.741Z" fill="white"/>
<path d="M206.127 15.8515H208.928C208.571 13.2734 206.299 11.4592 203.352 11.4592C199.908 11.4592 197.253 13.9418 197.253 18.1686C197.253 22.2935 199.736 24.8525 203.409 24.8525C206.7 24.8525 209.049 22.7709 209.049 19.3399V17.6975H203.594V19.7727H206.394C206.356 21.3896 205.255 22.4145 203.422 22.4145C201.353 22.4145 200.048 20.8676 200.048 18.1431C200.048 15.4314 201.404 13.8973 203.396 13.8973C204.816 13.8973 205.777 14.6293 206.127 15.8515Z" fill="white"/>
<path d="M224.892 18.1559C224.892 13.8909 222.244 11.4592 218.787 11.4592C215.312 11.4592 212.683 13.8909 212.683 18.1559C212.683 22.4017 215.312 24.8525 218.787 24.8525C222.244 24.8525 224.892 22.4208 224.892 18.1559ZM222.097 18.1559C222.097 20.9185 220.786 22.4145 218.787 22.4145C216.782 22.4145 215.477 20.9185 215.477 18.1559C215.477 15.3932 216.782 13.8973 218.787 13.8973C220.786 13.8973 222.097 15.3932 222.097 18.1559Z" fill="white"/>
<path d="M240.706 18.1559C240.706 13.8909 238.058 11.4592 234.602 11.4592C231.126 11.4592 228.497 13.8909 228.497 18.1559C228.497 22.4017 231.126 24.8525 234.602 24.8525C238.058 24.8525 240.706 22.4208 240.706 18.1559ZM237.912 18.1559C237.912 20.9185 236.601 22.4145 234.602 22.4145C232.597 22.4145 231.292 20.9185 231.292 18.1559C231.292 15.3932 232.597 13.8973 234.602 13.8973C236.601 13.8973 237.912 15.3932 237.912 18.1559Z" fill="white"/>
<path d="M249.162 24.6743C253.134 24.6743 255.541 22.2171 255.541 18.1431C255.541 14.0819 253.134 11.6375 249.2 11.6375H244.541V24.6743H249.162ZM247.297 22.3126V13.9991H249.054C251.498 13.9991 252.791 15.2468 252.791 18.1431C252.791 21.0522 251.498 22.3126 249.048 22.3126H247.297Z" fill="white"/>
</svg>
